<?xml version="1.0" standalone="no"?>
<!DOCTYPE svg PUBLIC "-//W3C//DTD SVG 20010904//EN"
 "http://www.w3.org/TR/2001/REC-SVG-20010904/DTD/svg10.dtd">
<svg version="1.0" xmlns="http://www.w3.org/2000/svg"
 width="700.000000pt" height="700.000000pt" viewBox="0 0 700.000000 700.000000"
 preserveAspectRatio="xMidYMid meet">
<metadata>
Created by potrace 1.14, written by Peter Selinger 2001-2017
</metadata>
<g transform="translate(0.000000,700.000000) scale(0.100000,-0.100000)"
fill="#000000" stroke="none">
<path d="M3457 6564 c-1 -1 -58 -4 -127 -8 -69 -3 -136 -8 -150 -10 -14 -2
-51 -7 -84 -11 -66 -8 -82 -10 -186 -31 -485 -98 -939 -309 -1323 -617 -98
-79 -332 -304 -411 -397 -212 -246 -400 -559 -525 -872 -47 -117 -125 -364
-137 -433 -3 -16 -9 -46 -14 -65 -5 -19 -14 -71 -20 -115 -7 -44 -13 -87 -15
-95 -2 -8 -6 -51 -10 -95 -4 -44 -9 -96 -11 -115 -5 -46 -5 -365 0 -410 2 -19
7 -69 10 -110 4 -41 9 -82 11 -90 2 -8 6 -33 9 -55 5 -45 40 -219 56 -280 6
-22 13 -49 15 -60 3 -11 20 -67 39 -125 83 -257 207 -516 349 -734 420 -642
1059 -1104 1799 -1300 355 -94 771 -122 1128 -76 41 6 91 12 110 14 19 3 71
12 115 21 44 9 91 19 105 22 78 16 305 84 375 113 11 5 56 23 100 40 79 32
256 118 325 157 269 155 453 295 670 513 250 249 425 491 579 799 136 270 242
591 277 836 3 22 7 47 9 55 2 8 7 42 11 75 3 33 8 62 9 65 5 9 18 265 17 340
-2 340 -59 670 -167 980 -61 177 -69 195 -160 375 -118 233 -244 426 -402 614
-106 126 -343 352 -463 441 -18 14 -45 34 -59 46 -91 74 -299 200 -472 285
-167 83 -478 198 -607 224 -10 2 -64 13 -120 24 -192 40 -350 57 -590 64 -35
1 -64 2 -65 1z m131 -1128 c69 -24 90 -60 345 -572 136 -275 252 -506 257
-514 5 -8 40 -78 77 -154 37 -77 73 -148 78 -158 6 -11 187 -373 403 -806 216
-433 397 -794 402 -802 5 -8 28 -53 52 -100 35 -71 42 -95 42 -145 0 -74 -30
-130 -95 -178 -38 -28 -51 -32 -109 -32 -58 0 -91 10 -295 88 -126 49 -239 92
-250 97 -11 5 -164 64 -340 130 -176 66 -327 123 -335 127 -8 3 -19 7 -25 9
-19 5 -230 85 -261 99 -29 13 -40 10 -195 -51 -272 -108 -596 -235 -949 -375
-287 -113 -344 -132 -397 -134 -106 -4 -198 61 -224 159 -21 79 -8 129 83 311
46 94 89 179 96 190 6 11 25 49 42 85 17 36 35 72 40 80 5 8 95 188 201 400
105 212 195 392 200 400 4 8 76 152 160 320 83 168 155 312 160 320 4 8 56
112 114 230 59 118 110 220 113 225 4 6 7 12 7 15 1 7 321 644 337 670 7 12
36 35 63 51 41 23 61 29 110 28 33 0 75 -6 93 -13z"/>
</g>
</svg>
